<svg id="logo" xmlns="http://www.w3.org/2000/svg" viewBox="0 0 233 47"><defs><style>.cls-1{fill:#f4f2f2;}.cls-1,.cls-2{fill-rule:evenodd;}.cls-2{fill:#046cd5;}</style></defs><title>cloud_logo_dark-A</title><path class="cls-1" d="M57.55,18.53a3.77,3.77,0,0,0-1.68-1.27,5.66,5.66,0,0,0-2-.41,5.72,5.72,0,0,0-2.3.46,5.47,5.47,0,0,0-1.78,1.27,5.82,5.82,0,0,0-1.15,1.89,6.66,6.66,0,0,0-.4,2.34,7.3,7.3,0,0,0,.39,2.44,5.37,5.37,0,0,0,1.12,1.9,5,5,0,0,0,1.73,1.23,5.76,5.76,0,0,0,2.28.43,5.08,5.08,0,0,0,2.32-.51,4.53,4.53,0,0,0,1.64-1.37L60,28.56a7.45,7.45,0,0,1-2.65,2.11,8.49,8.49,0,0,1-3.65.74,9.45,9.45,0,0,1-3.51-.63A8.17,8.17,0,0,1,47.45,29a7.91,7.91,0,0,1-1.79-2.71A9.15,9.15,0,0,1,45,22.81a8.89,8.89,0,0,1,.68-3.53,8,8,0,0,1,1.86-2.68,8.29,8.29,0,0,1,2.8-1.7,9.92,9.92,0,0,1,3.49-.6,9.52,9.52,0,0,1,1.64.15,8.21,8.21,0,0,1,1.63.46,7.91,7.91,0,0,1,1.47.77,4.76,4.76,0,0,1,1.17,1.11ZM64,14.72h2.9v13.7h6.92V31H64V14.72Zm12.47,8.09a9.06,9.06,0,0,1,.66-3.53A7.78,7.78,0,0,1,79,16.6a7.88,7.88,0,0,1,2.76-1.7,9.78,9.78,0,0,1,3.48-.6,10,10,0,0,1,3.52.6,8.05,8.05,0,0,1,2.78,1.7,7.58,7.58,0,0,1,1.83,2.68A9.06,9.06,0,0,1,94,22.81a8.93,8.93,0,0,1-.66,3.49A8.07,8.07,0,0,1,91.49,29a8.29,8.29,0,0,1-2.78,1.77,9.58,9.58,0,0,1-3.52.63,9.37,9.37,0,0,1-3.48-.63A8.21,8.21,0,0,1,79,29a7.89,7.89,0,0,1-1.82-2.71A9,9,0,0,1,76.47,22.81Zm3.15,0A6.89,6.89,0,0,0,80,25.22a5.58,5.58,0,0,0,1.15,1.89A5.17,5.17,0,0,0,83,28.37a5.56,5.56,0,0,0,2.26.45,5.66,5.66,0,0,0,2.28-.45,5.2,5.2,0,0,0,1.78-1.26,5.49,5.49,0,0,0,1.15-1.89,6.89,6.89,0,0,0,.41-2.41,6.61,6.61,0,0,0-.41-2.34,5.77,5.77,0,0,0-1.13-1.89,5.2,5.2,0,0,0-1.78-1.26,6,6,0,0,0-4.59,0,5.32,5.32,0,0,0-1.76,1.26A5.77,5.77,0,0,0,80,20.47a6.67,6.67,0,0,0-.41,2.34ZM112.05,25a6.68,6.68,0,0,1-.51,2.66,5.78,5.78,0,0,1-1.38,2A6.15,6.15,0,0,1,108.09,31a7.39,7.39,0,0,1-2.59.44,7.51,7.51,0,0,1-2.6-.44,6.19,6.19,0,0,1-2.08-1.28,5.78,5.78,0,0,1-1.38-2,6.85,6.85,0,0,1-.5-2.66V14.72h2.9V24.9a5.7,5.7,0,0,0,.18,1.42,3.64,3.64,0,0,0,.61,1.25,3.18,3.18,0,0,0,1.13.9,3.94,3.94,0,0,0,1.74.34,3.89,3.89,0,0,0,1.73-.34,3.09,3.09,0,0,0,1.13-.9,3.47,3.47,0,0,0,.61-1.25,5.7,5.7,0,0,0,.18-1.42V14.72h2.9Zm5.75-10.3h5.77a12.66,12.66,0,0,1,3.2.41,8.19,8.19,0,0,1,2.89,1.37,7.2,7.2,0,0,1,2.1,2.51,8.38,8.38,0,0,1,.8,3.85,8,8,0,0,1-.8,3.68,7.56,7.56,0,0,1-2.1,2.53,8.76,8.76,0,0,1-2.89,1.46,11.22,11.22,0,0,1-3.2.47H117.8Zm5.31,13.75a10.16,10.16,0,0,0,2.25-.26,6.12,6.12,0,0,0,2-.9,4.77,4.77,0,0,0,1.48-1.71,5.73,5.73,0,0,0,.58-2.74,6,6,0,0,0-.58-2.85,4.67,4.67,0,0,0-1.48-1.73,5.47,5.47,0,0,0-2-.85,11.3,11.3,0,0,0-2.25-.23h-2.42V28.47Zm12.81.92a1.69,1.69,0,0,1,.54-1.26,1.76,1.76,0,0,1,1.3-.53,1.84,1.84,0,0,1,1.28.5,1.62,1.62,0,0,1,.56,1.24,1.72,1.72,0,0,1-.54,1.27,1.83,1.83,0,0,1-1.3.53,1.91,1.91,0,0,1-.71-.14,2,2,0,0,1-.58-.37,1.72,1.72,0,0,1-.41-.55,1.58,1.58,0,0,1-.15-.69Zm22,.76a12.52,12.52,0,0,1-2.73.93,15.77,15.77,0,0,1-3.41.33,10,10,0,0,1-3.61-.63A8.2,8.2,0,0,1,145.34,29a8.07,8.07,0,0,1-1.83-2.71,9.12,9.12,0,0,1-.65-3.49,8.72,8.72,0,0,1,.68-3.53,7.89,7.89,0,0,1,1.86-2.68,8.35,8.35,0,0,1,2.79-1.7,10,10,0,0,1,3.5-.6,10.8,10.8,0,0,1,3.58.57,7.27,7.27,0,0,1,2.61,1.48l-2,2.16a5,5,0,0,0-1.74-1.17,6,6,0,0,0-2.43-.48,5.67,5.67,0,0,0-2.33.46,5.11,5.11,0,0,0-1.78,1.26,5.62,5.62,0,0,0-1.14,1.89,6.67,6.67,0,0,0-.41,2.34,6.89,6.89,0,0,0,.41,2.41,5.43,5.43,0,0,0,1.15,1.89,5.1,5.1,0,0,0,1.81,1.26,6.26,6.26,0,0,0,2.43.45,8.44,8.44,0,0,0,3.24-.58V24.1h-3.42V21.71h6.23Zm4.64-7.34a9.06,9.06,0,0,1,.65-3.53A7.78,7.78,0,0,1,165,16.6a7.88,7.88,0,0,1,2.76-1.7,9.78,9.78,0,0,1,3.48-.6,10,10,0,0,1,3.52.6,8.05,8.05,0,0,1,2.78,1.7,7.58,7.58,0,0,1,1.83,2.68,9.06,9.06,0,0,1,.66,3.53,8.93,8.93,0,0,1-.66,3.49A7.92,7.92,0,0,1,177.55,29a8.19,8.19,0,0,1-2.78,1.77,9.58,9.58,0,0,1-3.52.63,9.37,9.37,0,0,1-3.48-.63A8.21,8.21,0,0,1,165,29a8,8,0,0,1-1.82-2.71A8.93,8.93,0,0,1,162.54,22.81Zm3.15,0a6.89,6.89,0,0,0,.4,2.41,5.58,5.58,0,0,0,1.15,1.89A5.26,5.26,0,0,0,169,28.37a5.58,5.58,0,0,0,2.27.45,5.64,5.64,0,0,0,2.27-.45,5.11,5.11,0,0,0,1.78-1.26,5.49,5.49,0,0,0,1.15-1.89,6.89,6.89,0,0,0,.41-2.41,6.61,6.61,0,0,0-.41-2.34,5.77,5.77,0,0,0-1.13-1.89,5.26,5.26,0,0,0-1.77-1.26,5.56,5.56,0,0,0-2.3-.46,5.45,5.45,0,0,0-2.29.46,5.13,5.13,0,0,0-1.76,1.26,5.62,5.62,0,0,0-1.14,1.89,6.66,6.66,0,0,0-.4,2.34Zm17.15-8.09h3.24l4.49,12.53h.09l4.53-12.53h3.13L191.79,31h-2.51Z"/><path class="cls-2" d="M17,1,0,13.38l6.93,5.33h7.56L17,11l2.51,7.73h7.58L34,13.38Z"/><path class="cls-1" d="M27.08,18.7h0l-6,4.78,2.51,7.72L17,26.43,10.43,31.2l2.51-7.72-6-4.78L0,13.38V33L17,45.38,34,33V13.38Z"/></svg>